<svg width="118" height="24" viewBox="0 0 118 24" fill="none" xmlns="http://www.w3.org/2000/svg">
<path d="M9.31363 0.727999C11.7243 0.727999 13.6123 1.26133 14.9776 2.328C16.3643 3.39467 17.0576 4.90933 17.0576 6.872V7.256H13.9216V6.776C13.9216 5.752 13.5056 4.96267 12.6736 4.408C11.8416 3.85333 10.743 3.576 9.37763 3.576C7.86296 3.576 6.67896 3.832 5.82563 4.344C4.99363 4.83467 4.57763 5.54933 4.57763 6.488C4.57763 7.192 4.81229 7.768 5.28163 8.216C5.77229 8.664 6.36963 9.016 7.07363 9.272C7.79896 9.528 8.79096 9.816 10.0496 10.136C11.671 10.5627 12.983 10.9787 13.9856 11.384C14.9883 11.7893 15.8416 12.3973 16.5456 13.208C17.271 14.0187 17.6336 15.096 17.6336 16.44C17.6336 18.8293 16.8976 20.5787 15.4256 21.688C13.975 22.776 11.927 23.32 9.28163 23.32C6.63629 23.32 4.57763 22.7653 3.10563 21.656C1.65496 20.5253 0.929625 18.8933 0.929625 16.76L0.961625 16.12H4.09763L4.06563 16.792C4.06563 18.0293 4.52429 18.9573 5.44163 19.576C6.38029 20.1733 7.67096 20.472 9.31363 20.472C10.9136 20.472 12.1723 20.184 13.0896 19.608C14.0283 19.0107 14.4976 18.2 14.4976 17.176C14.4976 16.3653 14.2416 15.7147 13.7296 15.224C13.239 14.712 12.6096 14.3173 11.8416 14.04C11.095 13.7627 10.071 13.4533 8.76963 13.112C7.16963 12.6853 5.88963 12.28 4.92963 11.896C3.96962 11.512 3.14829 10.9253 2.46563 10.136C1.78296 9.32533 1.44163 8.26933 1.44163 6.968C1.44163 4.856 2.15629 3.288 3.58563 2.264C5.01496 1.24 6.92429 0.727999 9.31363 0.727999ZM30.3361 0.727999C32.0428 0.727999 33.5255 1.05867 34.7841 1.72C36.0641 2.38133 37.0455 3.32 37.7281 4.536C38.4108 5.752 38.7521 7.16 38.7521 8.76H35.6161C35.6161 7.11733 35.1575 5.848 34.2401 4.952C33.3441 4.03467 32.0428 3.576 30.3361 3.576C28.4161 3.576 26.9548 4.17333 25.9521 5.368C24.9495 6.54133 24.4481 8.28 24.4481 10.584V13.464C24.4481 15.768 24.9388 17.5173 25.9201 18.712C26.9228 19.8853 28.3948 20.472 30.3361 20.472C32.1921 20.472 33.5468 20.0133 34.4001 19.096C35.2535 18.1573 35.6801 16.6747 35.6801 14.648V14.232H29.4721V11.416H38.7521V18.904C38.7521 20.6747 38.8161 22.04 38.9441 23H37.0881C36.8108 22.1253 36.5975 21.2507 36.4481 20.376C35.0615 22.3387 33.0241 23.32 30.3361 23.32C27.4988 23.32 25.2801 22.456 23.6801 20.728C22.1015 18.9787 21.3121 16.5573 21.3121 13.464V10.584C21.3121 7.512 22.1015 5.10133 23.6801 3.352C25.2801 1.60267 27.4988 0.727999 30.3361 0.727999ZM51.0964 0.727999C52.6324 0.727999 53.9337 1.03733 55.0004 1.656C56.067 2.27467 56.867 3.07467 57.4004 4.056C57.9337 5.03733 58.2004 6.072 58.2004 7.16C58.2004 8.696 57.891 9.95467 57.2724 10.936C56.6537 11.9173 55.6617 12.9307 54.2964 13.976L48.1844 18.648C47.6937 18.9893 47.3097 19.2987 47.0324 19.576C46.7764 19.832 46.6484 20.024 46.6484 20.152H58.2964V23H43.2244V22.232C43.2244 21.144 43.4804 20.1093 43.9924 19.128C44.5257 18.1253 45.2617 17.272 46.2004 16.568L52.5684 11.768C53.4644 11.0427 54.1044 10.328 54.4884 9.624C54.8724 8.92 55.0644 8.14133 55.0644 7.288C55.0644 6.648 54.9044 6.05067 54.5844 5.496C54.2644 4.92 53.795 4.46133 53.1764 4.12C52.5577 3.75733 51.811 3.576 50.9364 3.576C50.0404 3.576 49.2404 3.768 48.5364 4.152C47.8537 4.536 47.3204 5.048 46.9364 5.688C46.5524 6.328 46.3604 7.032 46.3604 7.8V8.248C46.3604 8.41867 46.371 8.54667 46.3924 8.632H43.2564L43.2244 8.312V8.056C43.2244 6.81867 43.5017 5.64533 44.0564 4.536C44.611 3.40533 45.475 2.488 46.6484 1.784C47.8217 1.08 49.3044 0.727999 51.0964 0.727999ZM70.5279 0.727999C71.9145 0.727999 73.1519 0.983999 74.2399 1.496C75.3279 2.008 76.1705 2.72267 76.7679 3.64C77.3652 4.536 77.6639 5.54933 77.6639 6.68C77.6639 7.896 77.3545 8.89867 76.7359 9.688C76.1385 10.456 75.2852 11.096 74.1759 11.608L74.2079 11.704C75.4239 12.088 76.3839 12.7387 77.0879 13.656C77.8132 14.552 78.1759 15.704 78.1759 17.112C78.1759 18.3067 77.8452 19.3733 77.1839 20.312C76.5225 21.2507 75.6052 21.9867 74.4319 22.52C73.2585 23.0533 71.9572 23.32 70.5279 23.32H70.1439C67.8185 23.32 65.9625 22.744 64.5759 21.592C63.2105 20.4187 62.5279 18.8187 62.5279 16.792V16.536H65.6639V16.888C65.6639 18.0613 66.0585 18.9573 66.8479 19.576C67.6372 20.1733 68.7679 20.472 70.2399 20.472C71.7545 20.472 72.9279 20.1733 73.7599 19.576C74.6132 18.9573 75.0399 18.0293 75.0399 16.792C75.0399 14.4453 73.3972 13.272 70.1119 13.272H67.7119V10.392H70.1759C71.4772 10.392 72.5225 10.0933 73.3119 9.496C74.1225 8.89867 74.5279 8.04533 74.5279 6.936C74.5279 5.848 74.1332 5.016 73.3439 4.44C72.5759 3.864 71.5412 3.576 70.2399 3.576C69.0239 3.576 68.0425 3.87466 67.2959 4.472C66.5492 5.06933 66.1759 5.90133 66.1759 6.968V7.256H63.0399V6.68C63.0399 5.50667 63.3492 4.472 63.9679 3.576C64.6079 2.65867 65.4719 1.95467 66.5599 1.464C67.6692 0.973332 68.8959 0.727999 70.2399 0.727999H70.5279ZM90.1834 0.727999C92.274 0.727999 93.9487 1.28267 95.2074 2.392C96.4874 3.50133 97.1274 4.984 97.1274 6.84C97.1274 7.992 96.882 8.93067 96.3914 9.656C95.922 10.3813 95.1754 11.0533 94.1514 11.672V11.8C95.3674 12.3547 96.2847 13.0373 96.9034 13.848C97.5434 14.6587 97.8634 15.736 97.8634 17.08C97.8634 19.0427 97.1914 20.5787 95.8474 21.688C94.5247 22.776 92.6367 23.32 90.1834 23.32C87.8367 23.32 85.97 22.776 84.5834 21.688C83.1967 20.5787 82.5034 19.0427 82.5034 17.08C82.5034 15.736 82.8234 14.648 83.4634 13.816C84.1034 12.9627 85.0207 12.2907 86.2154 11.8V11.672C85.042 10.9467 84.2527 10.232 83.8474 9.528C83.442 8.824 83.2394 7.992 83.2394 7.032C83.2394 4.984 83.8794 3.42667 85.1594 2.36C86.4394 1.272 88.114 0.727999 90.1834 0.727999ZM90.1834 3.576C89.0314 3.576 88.1034 3.896 87.3994 4.536C86.7167 5.176 86.3754 5.98667 86.3754 6.968C86.3754 7.94933 86.7167 8.76 87.3994 9.4C88.1034 10.04 89.0314 10.36 90.1834 10.36C91.3354 10.36 92.2527 10.04 92.9354 9.4C93.6394 8.76 93.9914 7.94933 93.9914 6.968C93.9914 5.98667 93.6394 5.176 92.9354 4.536C92.2527 3.896 91.3354 3.576 90.1834 3.576ZM90.1834 13.208C88.0927 13.208 86.6954 13.8907 85.9914 15.256C85.7567 15.768 85.6394 16.3013 85.6394 16.856C85.6394 18.0507 86.066 18.9573 86.9194 19.576C87.7727 20.1733 88.8607 20.472 90.1834 20.472C91.5274 20.472 92.6154 20.1627 93.4474 19.544C94.3007 18.904 94.7274 18.008 94.7274 16.856C94.7274 15.7253 94.3114 14.84 93.4794 14.2C92.6687 13.5387 91.57 13.208 90.1834 13.208ZM110.063 0.727999C111.407 0.727999 112.634 1.048 113.743 1.688C114.874 2.328 115.77 3.21333 116.431 4.344C117.092 5.47467 117.423 6.744 117.423 8.152V15.928C117.423 17.3147 117.103 18.5733 116.463 19.704C115.823 20.8133 114.938 21.6987 113.807 22.36C112.698 23 111.45 23.32 110.063 23.32H109.647C108.239 23.32 106.97 23 105.839 22.36C104.73 21.6987 103.866 20.8027 103.247 19.672C102.628 18.5413 102.319 17.2933 102.319 15.928V8.152C102.319 6.72267 102.639 5.44267 103.279 4.312C103.94 3.18133 104.826 2.30667 105.935 1.688C107.044 1.048 108.282 0.727999 109.647 0.727999H110.063ZM109.871 3.576C108.634 3.576 107.588 3.992 106.735 4.824C105.882 5.63467 105.455 6.65867 105.455 7.896V16.152C105.455 17.3893 105.882 18.424 106.735 19.256C107.588 20.0667 108.634 20.472 109.871 20.472C111.151 20.472 112.207 20.056 113.039 19.224C113.871 18.392 114.287 17.368 114.287 16.152V7.896C114.287 6.68 113.871 5.656 113.039 4.824C112.207 3.992 111.151 3.576 109.871 3.576Z" fill="#E3E3E3"/>
</svg>
